<svg viewBox="0 0 566 427" xmlns="http://www.w3.org/2000/svg" xml:space="preserve" style="fill-rule:evenodd;clip-rule:evenodd;stroke-linecap:round;stroke-linejoin:round;stroke-miterlimit:1.5"><path d="M457.681 225.745c0-6.474-7.984-11.731-17.817-11.731H112.577c-9.833 0-17.816 5.257-17.816 11.731v23.463c0 6.474 7.983 11.731 17.816 11.731h327.287c9.833 0 17.817-5.257 17.817-11.731v-23.463Z" style="stroke:#fff;stroke-width:5.91px" transform="matrix(.50547 -.42197 .64085 .76766 -36.61 125.636)"/><ellipse cx="392.618" cy="88.048" rx="22.867" ry="22.908" style="stroke:#fff;stroke-width:5px" transform="translate(-53.914 33.346)"/><ellipse cx="392.618" cy="88.048" rx="22.867" ry="22.908" style="stroke:#fff;stroke-width:4.94px" transform="matrix(1.01134 0 0 1.01415 -224.491 171.198)"/><ellipse cx="392.618" cy="88.048" rx="22.867" ry="22.908" style="stroke:#fff;stroke-width:4.73px" transform="matrix(1.08347 .18352 -.16937 .99991 -189.998 192.919)"/><path d="M399.957 123.231c26.749.257 36.407 35.065 17.719 43.197-23.923 10.41-74.249 55.291-98.947 90.618-24.697 35.327-49.238 121.346-49.238 121.346.948 1.129-47.355-3.317-47.812-8.425-2.372-26.461 31.941-109.251 61.654-150.374 29.534-40.875 92.545-96.594 116.624-96.362Z" style="stroke:#fff;stroke-width:5px" transform="rotate(9.614 339.759 208.651)"/><path d="m43.292 30.965-1.894-1.581-3.054-.522 1.258 3.542.922 1.373 1.831-.109.937-2.703Z" style="stroke:#fff;stroke-width:.54px" transform="matrix(10.47789 2.04435 -1.4628 7.49734 -266.501 -250.963)"/><path d="m43.292 30.965-1.894-1.581-3.054-.522 1.258 3.542.922 1.373 1.831-.109.937-2.703Z" style="stroke:#fff;stroke-width:.54px" transform="matrix(10.47789 2.04435 1.4628 -7.49734 -365.099 253.679)"/><path d="M204.271 33.435c45.38 0 82.223 36.843 82.223 82.223 0 45.38-36.843 82.223-82.223 82.223-45.38 0-82.223-36.843-82.223-82.223 0-45.38 36.843-82.223 82.223-82.223Zm26.004 36.372a7.566 7.566 0 0 0-10.694-.122l-60.671 59.302a7.566 7.566 0 0 0-.123 10.694l10.572 10.816a7.566 7.566 0 0 0 10.694.122l60.672-59.302a7.565 7.565 0 0 0 .122-10.694l-10.572-10.816Z" style="stroke:#fff;stroke-width:5px" transform="rotate(7.973 183.197 115.658)"/><path d="M339.402 105.806c-4.15-4.97-11.554-5.636-16.524-1.487L157.445 242.423c-4.97 4.15-5.636 11.553-1.487 16.523l15.036 18.012c4.15 4.97 11.553 5.637 16.523 1.488L352.95 140.34c4.97-4.149 5.637-11.553 1.488-16.523l-15.036-18.012Z"/><ellipse cx="392.618" cy="88.048" rx="22.867" ry="22.908" transform="translate(-53.914 33.346)"/><ellipse cx="392.618" cy="88.048" rx="22.867" ry="22.908" transform="matrix(1.01134 0 0 1.01415 -224.491 171.198)"/><ellipse cx="392.618" cy="88.048" rx="22.867" ry="22.908" transform="matrix(1.08347 .18352 -.16937 .99991 -189.998 192.919)"/><path d="M399.957 123.231c26.749.257 36.407 35.065 17.719 43.197-23.923 10.41-74.249 55.291-98.947 90.618-24.697 35.327-49.238 121.346-49.238 121.346.948 1.129-47.355-3.317-47.812-8.425-2.372-26.461 31.941-109.251 61.654-150.374 29.534-40.875 92.545-96.594 116.624-96.362Z" style="stroke:#000;stroke-width:1px" transform="rotate(9.614 339.759 208.651)"/><path d="m43.292 30.965-1.894-1.581-3.054-.522 1.258 3.542.922 1.373 1.831-.109.937-2.703Z" style="stroke:#000;stroke-width:.11px" transform="matrix(10.47789 2.04435 -1.4628 7.49734 -266.501 -250.963)"/><path d="m43.292 30.965-1.894-1.581-3.054-.522 1.258 3.542.922 1.373 1.831-.109.937-2.703Z" style="stroke:#000;stroke-width:.11px" transform="matrix(10.47789 2.04435 1.4628 -7.49734 -365.099 253.679)"/><path d="M215.472 37.153c44.942 6.294 76.318 47.892 70.024 92.833-6.295 44.941-47.892 76.318-92.833 70.023-44.942-6.294-76.318-47.891-70.024-92.833 6.295-44.941 47.892-76.318 92.833-70.023ZM236.18 76.78a7.566 7.566 0 0 0-10.574-1.604l-68.31 50.313a7.566 7.566 0 0 0-1.605 10.574l8.97 12.178a7.566 7.566 0 0 0 10.573 1.604l68.311-50.313a7.565 7.565 0 0 0 1.604-10.574l-8.97-12.178Z"/><circle cx="31.849" cy="45.803" r=".744" style="fill:none;stroke:#fff;stroke-width:.4px" transform="scale(12.37872) rotate(-40.476 -11.129 46.765)"/><circle cx="31.849" cy="45.803" r=".744" style="fill:none;stroke:#fff;stroke-width:.4px" transform="scale(12.37872) rotate(-40.476 -12.357 43.432)"/><circle cx="31.849" cy="45.803" r=".744" style="fill:none;stroke:#fff;stroke-width:.4px" transform="scale(12.37872) rotate(-40.476 -13.586 40.1)"/><circle cx="31.849" cy="45.803" r=".744" style="fill:#2b5ebf;stroke:#000;stroke-width:.02px" transform="scale(12.37872) rotate(-40.476 -11.129 46.765)"/><circle cx="31.849" cy="45.803" r=".744" style="fill:#2b5ebf;stroke:#000;stroke-width:.02px" transform="scale(12.37872) rotate(-40.476 -12.357 43.432)"/><circle cx="31.849" cy="45.803" r=".744" style="fill:#2b5ebf;stroke:#000;stroke-width:.02px" transform="scale(12.37872) rotate(-40.476 -13.586 40.1)"/></svg>