<svg xmlns="http://www.w3.org/2000/svg" xml:space="preserve" style="fill-rule:evenodd;clip-rule:evenodd;stroke-linecap:round;stroke-linejoin:round;stroke-miterlimit:1.5" viewBox="0 0 566 427"><path d="M457.681 225.745c0-6.474-7.984-11.731-17.817-11.731H112.577c-9.833 0-17.816 5.257-17.816 11.731v23.463c0 6.474 7.983 11.731 17.816 11.731h327.287c9.833 0 17.817-5.257 17.817-11.731Z" style="fill:#fff;stroke:#fff;stroke-width:1.18px" transform="rotate(-39.855 154.966 113.308)scale(.65845 1)"/><ellipse cx="392.618" cy="88.048" rx="22.867" ry="22.908" style="fill:#fff;stroke:#fff;stroke-width:1px" transform="translate(-53.914 33.346)"/><ellipse cx="392.618" cy="88.048" rx="22.867" ry="22.908" style="fill:#fff;stroke:#fff;stroke-width:.99px" transform="matrix(1.01134 0 0 1.01415 -224.491 171.198)"/><ellipse cx="392.618" cy="88.048" rx="22.867" ry="22.908" style="fill:#fff;stroke:#fff;stroke-width:.95px" transform="rotate(9.614 -1242.07 -1033.24)scale(1.0989 1.01415)"/><path d="M399.957 123.231c26.749.257 36.407 35.065 17.719 43.197-23.923 10.41-74.249 55.291-98.947 90.618-24.697 35.327-49.238 121.346-49.238 121.346.948 1.129-47.355-3.317-47.812-8.425-2.372-26.461 31.941-109.251 61.654-150.374 29.534-40.875 92.545-96.594 116.624-96.362" style="fill:#fff;stroke:#fff;stroke-width:1px" transform="rotate(9.614 339.759 208.652)"/><path d="m43.292 30.965-1.894-1.581-3.054-.522 1.258 3.542.922 1.373 1.831-.109Z" style="fill:#fff;stroke:#fff;stroke-width:.11px" transform="rotate(11.04 1165.14 -1504.26)scale(10.6755 7.63871)"/><path d="m43.292 30.965-1.894-1.581-3.054-.522 1.258 3.542.922 1.373 1.831-.109Z" style="fill:#fff;stroke:#fff;stroke-width:.11px" transform="rotate(11.04 -1494.98 -1762.04)scale(10.6755 -7.63871)"/><path d="M204.271 33.435c45.38 0 82.223 36.843 82.223 82.223s-36.843 82.223-82.223 82.223-82.223-36.843-82.223-82.223 36.843-82.223 82.223-82.223m26.004 36.372a7.566 7.566 0 0 0-10.694-.122l-60.671 59.302a7.566 7.566 0 0 0-.123 10.694l10.572 10.816a7.566 7.566 0 0 0 10.694.122l60.672-59.302a7.565 7.565 0 0 0 .122-10.694Z" style="fill:#fff;stroke:#fff;stroke-width:1px" transform="rotate(7.973 183.197 115.658)"/><path d="M362.135 180.617h134.472" style="fill:none;stroke:#fff;stroke-width:5.12px" transform="rotate(-40.476 275.085 86.494)scale(.47113 1)"/><circle cx="31.849" cy="45.803" r=".744" style="fill:#2b5ebf;stroke:#000;stroke-width:.02px" transform="rotate(-40.476 -137.759 578.886)scale(12.3787 12.3787)"/><circle cx="31.849" cy="45.803" r=".744" style="fill:#2b5ebf;stroke:#000;stroke-width:.02px" transform="rotate(-40.476 -152.968 537.633)scale(12.3787 12.3787)"/><circle cx="31.849" cy="45.803" r=".744" style="fill:#2b5ebf;stroke:#000;stroke-width:.02px" transform="rotate(-40.476 -168.178 496.38)scale(12.3787 12.3787)"/></svg>